<?xml version="1.0" encoding="UTF-8" standalone="no"?>
<svg width="70px" height="99px" viewBox="0 0 70 99" version="1.1" xmlns="http://www.w3.org/2000/svg" xmlns:xlink="http://www.w3.org/1999/xlink">
    <!-- Generator: Sketch 44.1 (41455) - http://www.bohemiancoding.com/sketch -->
    <title>noun_632848</title>
    <desc>Created with Sketch.</desc>
    <defs></defs>
    <g id="Sign-In-/-Register" stroke="none" stroke-width="1" fill="none" fill-rule="evenodd">
        <g id="1-Landing" transform="translate(-349.000000, -93.000000)" fill-rule="nonzero" fill="#C1E5B1">
            <g id="noun_632848" transform="translate(349.000000, 93.378906)">
                <path d="M68.8,45.3 C68.3,44 67.7,42.7 67.1,41.5 C65.6,38.2 64.1,35.1 63.9,31.6 L62.9,12.9 C63.2,12.8 63.5,12.7 63.8,12.4 C64.1,12.1 64.2,11.6 64.2,11.2 L63.5,6.5 C63.4,5.8 62.8,5.2 62,5.2 L53.1,5.2 C52.4,5.2 51.7,5.8 51.6,6.5 L51,11.2 C50.9,11.6 51.1,12.1 51.4,12.4 C51.6,12.6 51.8,12.8 52.1,12.9 L51.1,31.7 C50.9,35.1 49.5,38.3 47.9,41.6 C47.5,42.4 47.2,43.1 46.8,43.9 C46.3,42.8 45.9,41.8 45.4,40.7 C43.7,37 42.1,33.5 41.8,29.6 L40.7,8.3 C41.1,8.3 41.5,8.1 41.7,7.8 C42,7.5 42.1,7 42.1,6.6 L41.4,1.3 C41.3,0.6 40.7,0 39.9,0 L29.9,0 C29.2,0 28.5,0.6 28.4,1.3 L27.7,6.6 C27.6,7 27.8,7.5 28.1,7.8 C28.3,8.1 28.6,8.2 29,8.3 L27.9,29.5 C27.7,33.4 26.1,36.9 24.3,40.6 C23.8,41.6 23.3,42.7 22.9,43.8 C22.6,43 22.2,42.2 21.8,41.5 C20.3,38.2 18.8,35.1 18.6,31.6 L17.6,12.9 C17.9,12.8 18.2,12.7 18.5,12.4 C18.8,12.1 18.9,11.6 18.9,11.2 L18.2,6.5 C18.1,5.8 17.5,5.2 16.7,5.2 L7.8,5.2 C7.1,5.2 6.4,5.8 6.3,6.5 L5.6,11.2 C5.5,11.6 5.7,12.1 6,12.4 C6.2,12.6 6.4,12.8 6.7,12.9 L5.7,31.7 C5.5,35.1 4.1,38.3 2.5,41.6 C1.9,42.8 1.3,44.1 0.8,45.4 C0.3,46.8 0,48.3 0,50 L0,87.8 C0,90.6 2.2,92.8 5,92.8 L19.3,92.8 C20,92.8 20.7,92.6 21.3,92.4 C21.3,95.5 23.7,97.9 26.7,97.9 L42.8,97.9 C45.8,97.9 48.2,95.5 48.2,92.5 C48.8,92.7 49.5,92.8 50.2,92.8 L64.5,92.8 C67.3,92.8 69.5,90.6 69.5,87.8 L69.5,50 C69.7,48.3 69.4,46.8 68.8,45.3 Z M66.7,79.6 C63.5,78.8 61.1,75.9 61.1,72.4 L61.1,65.2 C61.1,61.7 63.5,58.8 66.7,58 L66.7,79.6 Z M55.1,11.7 L59.9,11.7 L60.3,18.9 L54.8,18.9 L55.1,11.7 Z M60.7,8.2 L60.9,9.7 L54.2,9.7 L54.4,8.2 L60.7,8.2 Z M49,46.4 C49.5,45.2 50.1,43.9 50.6,42.7 C52.2,39.3 53.8,35.8 54,31.7 L54.6,20.9 L60.3,20.9 L60.9,31.7 C61.1,35.7 62.7,39.3 64.3,42.7 C64.9,43.9 65.4,45.1 65.9,46.4 C66.4,47.5 66.6,48.7 66.6,50 L66.6,55.9 C62.3,56.8 59,60.6 59,65.2 L59,72.4 C59,77 62.3,80.8 66.6,81.7 L66.6,86.4 L48.3,86.4 L48.3,50.1 C48.3,48.8 48.5,47.6 49,46.4 Z M32,7.3 L37.7,7.3 L38.2,16 L31.6,16 L32,7.3 Z M38.6,3.1 L38.9,5.4 L30.9,5.4 L31.2,3.1 L38.6,3.1 Z M27,41.9 C28.8,38.1 30.6,34.1 30.8,29.7 L31.4,18 L38.2,18 L38.8,29.6 C39,34.1 40.9,38 42.6,41.8 C43.2,43.1 43.9,44.5 44.4,45.9 C44.9,47.2 45.2,48.5 45.2,50 L45.2,87.7 L45.2,91.4 L24.4,91.4 L24.4,87.7 L24.4,50.1 C24.4,48.7 24.7,47.3 25.2,46 C25.7,44.6 26.3,43.3 27,41.9 Z M9.8,11.7 L14.6,11.7 L15,18.9 L9.5,18.9 L9.8,11.7 Z M15.4,8.2 L15.6,9.7 L8.9,9.7 L9.1,8.2 L15.4,8.2 Z M3.7,46.4 C4.2,45.2 4.8,43.9 5.3,42.7 C6.9,39.3 8.5,35.8 8.7,31.7 L9.3,20.9 L15,20.9 L15.6,31.7 C15.8,35.7 17.4,39.3 19,42.7 C19.6,43.9 20.1,45.1 20.6,46.4 C21.1,47.5 21.3,48.7 21.3,50 L21.3,86.4 L3,86.4 L3,81.8 C7.5,81.1 11,77.2 11,72.5 L11,65.3 C11,60.6 7.5,56.7 3,56 L3,50 C3,48.7 3.2,47.5 3.7,46.4 Z M3,57.9 C6.4,58.6 9,61.6 9,65.2 L9,72.4 C9,76 6.4,79 3,79.7 L3,57.9 Z M19.4,89.8 L5,89.8 C4.1,89.8 3.3,89.2 3.1,88.4 L21.3,88.4 C21,89.2 20.3,89.8 19.4,89.8 Z M42.9,94.9 L26.8,94.9 C25.8,94.9 25,94.3 24.6,93.5 L45.1,93.5 C44.7,94.3 43.9,94.9 42.9,94.9 Z M64.7,89.8 L50.3,89.8 C49.4,89.8 48.6,89.2 48.4,88.4 L66.6,88.4 C66.3,89.2 65.6,89.8 64.7,89.8 Z" id="Shape"></path>
                <path d="M39.8,47.5 L39.8,55.7 C39.8,56.3 40.2,56.7 40.8,56.7 C41.4,56.7 41.8,56.3 41.8,55.7 L41.8,47.5 C41.8,46 41.5,44.6 41,43.2 C40.8,42.7 40.2,42.4 39.7,42.6 C39.2,42.8 38.9,43.4 39.1,43.9 C39.6,45.1 39.8,46.3 39.8,47.5 Z" id="Shape"></path>
                <path d="M34.8,84.8 C40,84.8 44.3,80.6 44.3,75.3 L44.3,68.1 C44.3,62.9 40.1,58.6 34.8,58.6 C29.6,58.6 25.3,62.8 25.3,68.1 L25.3,75.3 C25.4,80.6 29.6,84.8 34.8,84.8 Z M27.4,68.1 C27.4,64 30.7,60.6 34.9,60.6 C39,60.6 42.4,63.9 42.4,68.1 L42.4,75.3 C42.4,79.4 39.1,82.8 34.9,82.8 C30.8,82.8 27.4,79.5 27.4,75.3 L27.4,68.1 Z" id="Shape"></path>
            </g>
        </g>
    </g>
</svg>